<?xml version="1.0" encoding="utf-8"?>
<svg version="1.1" xmlns:xlink="http://www.w3.org/1999/xlink" width="22px" height="27px" xmlns="http://www.w3.org/2000/svg">
  <g transform="matrix(1 0 0 1 -21 -350 )">
    <path d="M 21.484375 21.7150568181818  C 21.828125 22.1190340909091  22 22.5715909090909  22 23.0727272727273  C 22 23.7170454545455  21.6796875 24.2974431818182  21.0390625 24.8139204545455  C 20.3984375 25.3303977272727  19.5442708333333 25.7446022727273  18.4765625 26.0565340909091  C 17.4088541666667 26.3684659090909  16.2369791666667 26.6036931818182  14.9609375 26.7622159090909  C 13.6848958333333 26.9207386363636  12.3645833333333 27  11 27  C 9.63541666666667 27  8.31510416666667 26.9207386363636  7.0390625 26.7622159090909  C 5.76302083333333 26.6036931818182  4.59114583333333 26.3684659090909  3.5234375 26.0565340909091  C 2.45572916666667 25.7446022727273  1.6015625 25.3303977272727  0.9609375 24.8139204545455  C 0.3203125 24.2974431818182  0 23.7170454545455  0 23.0727272727273  C 0 22.5715909090909  0.171875 22.1190340909091  0.515625 21.7150568181818  C 0.859375 21.3110795454545  1.33333333333333 20.9710227272727  1.9375 20.6948863636364  C 2.54166666666667 20.41875  3.15625 20.1911931818182  3.78125 20.0122159090909  C 4.40625 19.8332386363636  5.08854166666667 19.6823863636364  5.828125 19.5596590909091  C 6.09895833333333 19.5085227272727  6.34895833333333 19.5622159090909  6.578125 19.7207386363636  C 6.80729166666667 19.8792613636364  6.94270833333333 20.0914772727273  6.984375 20.3573863636364  C 7.03645833333333 20.6232954545455  6.98177083333333 20.86875  6.8203125 21.09375  C 6.65885416666667 21.31875  6.44270833333333 21.4517045454545  6.171875 21.4926136363636  C 5.56770833333333 21.5948863636364  5.015625 21.7150568181818  4.515625 21.853125  C 4.015625 21.9911931818182  3.6171875 22.1215909090909  3.3203125 22.2443181818182  C 3.0234375 22.3670454545455  2.77083333333333 22.4872159090909  2.5625 22.6048295454545  C 2.35416666666667 22.7224431818182  2.2109375 22.8221590909091  2.1328125 22.9039772727273  C 2.0546875 22.9857954545455  2.01041666666667 23.0471590909091  2 23.0880681818182  C 2.03125 23.2005681818182  2.171875 23.3360795454545  2.421875 23.4946022727273  C 2.671875 23.653125  3.05208333333333 23.821875  3.5625 24.0008522727273  C 4.07291666666667 24.1798295454545  4.66666666666667 24.3460227272727  5.34375 24.4994318181818  C 6.02083333333333 24.6528409090909  6.85677083333333 24.7806818181818  7.8515625 24.8829545454545  C 8.84635416666667 24.9852272727273  9.89583333333333 25.0363636363636  11 25.0363636363636  C 12.1041666666667 25.0363636363636  13.1536458333333 24.9852272727273  14.1484375 24.8829545454545  C 15.1432291666667 24.7806818181818  15.9791666666667 24.6528409090909  16.65625 24.4994318181818  C 17.3333333333333 24.3460227272727  17.9270833333333 24.1772727272727  18.4375 23.9931818181818  C 18.9479166666667 23.8090909090909  19.328125 23.6377840909091  19.578125 23.4792613636364  C 19.828125 23.3207386363636  19.96875 23.1801136363636  20 23.0573863636364  C 19.9895833333333 23.0164772727273  19.9453125 22.9602272727273  19.8671875 22.8886363636364  C 19.7890625 22.8170454545455  19.6458333333333 22.7198863636364  19.4375 22.5971590909091  C 19.2291666666667 22.4744318181818  18.9765625 22.3542613636364  18.6796875 22.2366477272727  C 18.3828125 22.1190340909091  17.984375 21.9911931818182  17.484375 21.853125  C 16.984375 21.7150568181818  16.4322916666667 21.5948863636364  15.828125 21.4926136363636  C 15.5572916666667 21.4517045454545  15.3411458333333 21.31875  15.1796875 21.09375  C 15.0182291666667 20.86875  14.9635416666667 20.6232954545455  15.015625 20.3573863636364  C 15.0572916666667 20.0914772727273  15.1927083333333 19.8792613636364  15.421875 19.7207386363636  C 15.6510416666667 19.5622159090909  15.9010416666667 19.5085227272727  16.171875 19.5596590909091  C 16.9114583333333 19.6823863636364  17.59375 19.8332386363636  18.21875 20.0122159090909  C 18.84375 20.1911931818182  19.4583333333333 20.41875  20.0625 20.6948863636364  C 20.6666666666667 20.9710227272727  21.140625 21.3110795454545  21.484375 21.7150568181818  Z M 15.4140625 7.93892045454546  C 15.8046875 8.32244318181818  16 8.78522727272727  16 9.32727272727273  L 16 15.2181818181818  C 16 15.4840909090909  15.9010416666667 15.7142045454545  15.703125 15.9085227272727  C 15.5052083333333 16.1028409090909  15.2708333333333 16.2  15 16.2  L 14 16.2  L 14 22.0909090909091  C 14 22.3568181818182  13.9010416666667 22.5869318181818  13.703125 22.78125  C 13.5052083333333 22.9755681818182  13.2708333333333 23.0727272727273  13 23.0727272727273  L 9 23.0727272727273  C 8.72916666666667 23.0727272727273  8.49479166666667 22.9755681818182  8.296875 22.78125  C 8.09895833333333 22.5869318181818  8 22.3568181818182  8 22.0909090909091  L 8 16.2  L 7 16.2  C 6.72916666666667 16.2  6.49479166666667 16.1028409090909  6.296875 15.9085227272727  C 6.09895833333333 15.7142045454545  6 15.4840909090909  6 15.2181818181818  L 6 9.32727272727273  C 6 8.78522727272727  6.1953125 8.32244318181818  6.5859375 7.93892045454546  C 6.9765625 7.55539772727273  7.44791666666667 7.36363636363636  8 7.36363636363636  L 14 7.36363636363636  C 14.5520833333333 7.36363636363636  15.0234375 7.55539772727273  15.4140625 7.93892045454546  Z M 13.4765625 1.00482954545455  C 14.1588541666667 1.67471590909091  14.5 2.48522727272727  14.5 3.43636363636364  C 14.5 4.3875  14.1588541666667 5.19801136363636  13.4765625 5.86789772727273  C 12.7942708333333 6.53778409090909  11.96875 6.87272727272727  11 6.87272727272727  C 10.03125 6.87272727272727  9.20572916666667 6.53778409090909  8.5234375 5.86789772727273  C 7.84114583333333 5.19801136363636  7.5 4.3875  7.5 3.43636363636364  C 7.5 2.48522727272727  7.84114583333333 1.67471590909091  8.5234375 1.00482954545455  C 9.20572916666667 0.33494318181818  10.03125 0  11 0  C 11.96875 0  12.7942708333333 0.33494318181818  13.4765625 1.00482954545455  Z " fill-rule="nonzero" fill="#ffffff" stroke="none" transform="matrix(1 0 0 1 21 350 )" />
  </g>
</svg>