<?xml version="1.0" encoding="utf-8"?>
<svg version="1.1" xmlns:xlink="http://www.w3.org/1999/xlink" width="34px" height="34px" xmlns="http://www.w3.org/2000/svg">
  <g transform="matrix(1 0 0 1 -709 -1308 )">
    <path d="M 34 17  C 34 26.3999996185303  26.3999938964844 34  17 34  C 7.59999847412109 34  0 26.3999996185303  0 17  C 0 7.60000038146973  7.59999847412109 0  17 0  C 26.4000015258789 0  34 7.59999990463257  34 17  Z M 30 17  C 30 9.79999923706055  24.1999969482422 4  17 4  C 9.80000305175781 4  4 9.80000019073486  4 17  C 4 24.2000007629395  9.80000305175781 30  17 30  C 24.1999969482422 30  30 24.2000007629395  30 17  Z " fill-rule="nonzero" fill="#facd91" stroke="none" transform="matrix(1 0 0 1 709 1308 )" />
  </g>
</svg>