<?xml version="1.0" encoding="utf-8"?>
<svg version="1.1" xmlns:xlink="http://www.w3.org/1999/xlink" width="19px" height="32px" xmlns="http://www.w3.org/2000/svg">
  <g transform="matrix(1 0 0 1 -709 -1308 )">
    <path d="M 10.9999983938114 30.8965532416048  C 10.5000059228206 31.6990603228609  9.90000732823569 32  9.20000261005655 32  C 8.8000010038679 32  8.50000552127347 31.899686136511  8.20000240928297 31.6990603228609  C 3.10000291121692 28.5893420346699  0 23.0721005893827  0 17.0532917399785  C 0 7.62382492524419  7.60000381469803 0  16.9999995984528 0  C 18.0999982934246 0  19 0.90282130349403  19 2.00626961646806  C 19 3.1097178098591  18.0999982934246 4.01253923293612  16.9999995984528 4.01253923293612  C 9.80000120464148 4.01253923293612  3.99999698839629 9.83072131202628  3.99999698839629 17.0532917399785  C 3.99999698839629 21.6677122405206  6.30000050193395 25.7805634236179  10.3000013050283 28.1880884940418  C 11.2000030116037 28.7899697616478  11.4999984941981 29.9937303835319  10.9999983938114 30.8965532416048  Z " fill-rule="nonzero" fill="#f59a23" stroke="none" transform="matrix(1 0 0 1 709 1308 )" />
  </g>
</svg>