<?xml version="1.0" encoding="utf-8"?>
<svg version="1.1" xmlns:xlink="http://www.w3.org/1999/xlink" width="34px" height="34px" xmlns="http://www.w3.org/2000/svg">
  <g transform="matrix(1 0 0 1 -541 -1308 )">
    <path d="M 34 17  C 34 26.3999996185303  26.3999996185303 34  17 34  C 7.59999990463257 34  0 26.3999996185303  0 17  C 0 7.60000038146973  7.59999990463257 0  17 0  C 18.1000003814697 0  19 0.899999976158142  19 2  C 19 3.09999990463257  18.1000003814697 4  17 4  C 9.80000019073486 4  4 9.80000019073486  4 17  C 4 24.2000007629395  9.80000019073486 30  17 30  C 24.2000007629395 30  30 24.2000007629395  30 17  C 30 15.8999996185303  30.8999996185303 15  32 15  C 33.0999984741211 15  34 15.8999996185303  34 17  Z " fill-rule="nonzero" fill="#f59a23" stroke="none" transform="matrix(1 0 0 1 541 1308 )" />
  </g>
</svg>