<?xml version="1.0" encoding="utf-8"?>
<svg version="1.1" xmlns:xlink="http://www.w3.org/1999/xlink" width="17px" height="17px" xmlns="http://www.w3.org/2000/svg">
  <g transform="matrix(1 0 0 1 -21 -803 )">
    <path d="M 3.95741660752307 13.0397727272727  C 4.40785427016797 13.4905303030303  4.63307310149042 14.0378787878788  4.63307310149042 14.6818181818182  C 4.63307310149042 15.3257575757576  4.40785427016797 15.8731060606061  3.95741660752307 16.3238636363636  C 3.50697894487816 16.7746212121212  2.96001892595221 17  2.31653655074521 17  C 1.67305417553821 17  1.12609415661225 16.7746212121212  0.675656493967353 16.3238636363636  C 0.225218831322451 15.8731060606061  0 15.3257575757576  0 14.6818181818182  C 0 14.0378787878788  0.225218831322451 13.4905303030303  0.675656493967353 13.0397727272727  C 1.12609415661225 12.5890151515152  1.67305417553821 12.3636363636364  2.31653655074521 12.3636363636364  C 2.96001892595221 12.3636363636364  3.50697894487816 12.5890151515152  3.95741660752307 13.0397727272727  Z M 9.83924769339957 12.4723011363636  C 10.3821859474805 13.647490530303  10.7059380175065 14.8790246212121  10.8105039034776 16.1669034090909  C 10.8265909628578 16.3922821969697  10.7582209604921 16.5854640151515  10.6053938963804 16.7464488636364  C 10.4606103619588 16.9154829545455  10.2715874142418 17  10.0383250532292 17  L 8.40951029098652 17  C 8.20842204873433 17  8.03548616039745 16.93359375  7.89070262597587 16.80078125  C 7.74591909155429 16.66796875  7.66548379465342 16.500946969697  7.64939673527324 16.2997159090909  C 7.47243908209132 14.4564393939394  6.73042346818074 12.8808001893939  5.42334989354152 11.5727982954545  C 4.11627631890229 10.2647964015152  2.54175538206766 9.52225378787879  0.699787083037615 9.34517045454546  C 0.498698840785427 9.32907196969697  0.331795599716111 9.24857954545454  0.199077359829666 9.10369318181818  C 0.0663591199432221 8.95880681818182  0 8.78574810606061  0 8.58451704545454  L 0 6.95454545454545  C 0 6.72111742424242  0.0844570617459191 6.53196022727273  0.253371185237757 6.38707386363636  C 0.390111189969245 6.25023674242424  0.563047078306127 6.18181818181818  0.772178850248403 6.18181818181818  L 0.83250532292406 6.18181818181818  C 2.11947007333807 6.28645833333333  3.35013011592146 6.61044034090909  4.52448545067424 7.15376420454545  C 5.69884078542702 7.69708806818182  6.74047788029335 8.42755681818182  7.64939673527324 9.34517045454546  C 8.56635911994322 10.2547348484848  9.29630943931867 11.2971117424242  9.83924769339957 12.4723011363636  Z M 15.5400993612491 10.1360085227273  C 16.4007570380885 12.0638020833333  16.8833688194937 14.0821496212121  16.9879347054649 16.1910511363636  C 17.004021764845 16.4083806818182  16.9316299976343 16.5975378787879  16.7707594038325 16.7585227272727  C 16.6259758694109 16.9195075757576  16.4409746865389 17  16.2157558552165 17  L 14.4904187366927 17  C 14.2812869647504 17  14.102318429146 16.9295691287879  13.9535131298793 16.7887073863636  C 13.8047078306127 16.6478456439394  13.7262834161344 16.4767992424242  13.7182398864443 16.2755681818182  C 13.6217175301632 14.5449810606061  13.2155192808138 12.9009232954545  12.499645138396 11.3433948863636  C 11.7837709959782 9.78586647727273  10.8527324343506 8.43359375  9.70652945351313 7.28657670454545  C 8.56032647267566 6.13955965909091  7.20901348474095 5.20785984848485  5.65259048970901 4.49147727272727  C 4.09616749467708 3.77509469696969  2.4532765554767 3.36458333333333  0.723917672107878 3.25994318181818  C 0.52282942985569 3.25189393939394  0.35190442394133 3.17341382575758  0.211142654364798 3.02450284090909  C 0.0703808847882659 2.8755918560606  0 2.70052083333333  0 2.49928977272727  L 0 0.772727272727272  C 0 0.547348484848483  0.0804352969008753 0.36221590909091  0.241305890702626 0.217329545454546  C 0.386089425124202 0.072443181818182  0.563047078306127 0  0.772178850248403 0  L 0.808374733853797 0  C 2.91577951265673 0.104640151515149  4.93269458244618 0.587594696969695  6.85911994322214 1.44886363636364  C 8.78554530399811 2.31013257575758  10.4968062455642 3.49337121212121  11.9929027679205 4.99857954545455  C 13.4970428199669 6.49573863636364  14.6794416844097 8.20821496212121  15.5400993612491 10.1360085227273  Z " fill-rule="nonzero" fill="#f59a23" stroke="none" fill-opacity="0.996078431372549" transform="matrix(1 0 0 1 21 803 )" />
  </g>
</svg>