<?xml version="1.0" encoding="utf-8"?>
<svg version="1.1" xmlns:xlink="http://www.w3.org/1999/xlink" width="23px" height="31px" xmlns="http://www.w3.org/2000/svg">
  <g transform="matrix(1 0 0 1 -500 -401 )">
    <path d="M 13.1920572916667 29.2683593750001  C 13.6612413194444 28.8889322916665  13.8958333333333 28.4328124999999  13.8958333333333 27.8999999999999  C 13.8958333333333 27.3671875  13.6612413194444 26.9110677083332  13.1920572916667 26.5316406250001  C 12.7228732638888 26.1522135416666  12.1588541666667 25.9624999999999  11.5 25.9624999999999  C 10.8411458333333 25.9624999999999  10.2771267361112 26.1522135416666  9.80794270833327 26.5316406250001  C 9.33875868055557 26.9110677083332  9.10416666666673 27.3671875  9.10416666666673 27.8999999999999  C 9.10416666666673 28.4328124999999  9.33875868055557 28.8889322916665  9.80794270833327 29.2683593750001  C 10.2771267361112 29.6477864583333  10.8411458333333 29.8374999999999  11.5 29.8374999999999  C 12.1588541666667 29.8374999999999  12.7228732638888 29.6477864583333  13.1920572916667 29.2683593750001  Z M 19.8404947916667 24.5699218749999  C 20.0301649305556 24.4165364583333  20.125 24.2348958333333  20 24.0249999999999  L 20 6.97500000000014  C 20.125 6.7651041666667  20.0301649305556 6.5834635416667  19.8404947916667 6.43007812500014  C 19.6508246527777 6.27669270833331  19.4262152777777 6.20000000000005  19.1666666666667 6.20000000000005  L 3.83333333333326 6.20000000000005  C 3.57378472222231 6.20000000000005  3.34917534722231 6.27669270833331  3.15950520833326 6.43007812500014  C 2.96983506944443 6.5834635416667  2.875 6.7651041666667  3 6.97500000000014  L 3 24.0249999999999  C 2.875 24.2348958333333  2.96983506944443 24.4165364583333  3.15950520833326 24.5699218749999  C 3.34917534722231 24.7233072916667  3.57378472222231 24.7999999999999  3.83333333333326 24.7999999999999  L 19.1666666666667 24.7999999999999  C 19.4262152777777 24.7999999999999  19.6508246527777 24.7233072916667  19.8404947916667 24.5699218749999  Z M 13.8958333333333 3.875  C 14.2152777777777 3.875  14.375 3.74583333333345  14.375 3.48749999999995  C 14.375 3.22916666666669  14.2152777777777 3.10000000000014  13.8958333333333 3.10000000000014  L 9.10416666666673 3.10000000000014  C 8.78472222222231 3.10000000000014  8.625 3.22916666666669  8.625 3.48749999999995  C 8.625 3.74583333333345  8.78472222222231 3.875  9.10416666666673 3.875  L 13.8958333333333 3.875  Z M 21.8619791666667 0.920312500000136  C 22.6206597222223 1.53385416666669  23 2.26041666666669  23 3.10000000000014  L 23 27.8999999999999  C 23 28.7395833333333  22.6206597222223 29.4661458333333  21.8619791666667 30.0796874999999  C 21.1032986111112 30.6932291666666  20.2048611111112 31  19.1666666666667 31  L 3.83333333333326 31  C 2.79513888888885 31  1.89670138888885 30.6932291666666  1.13802083333326 30.0796874999999  C 0.379340277777686 29.4661458333333  0 28.7395833333333  0 27.8999999999999  L 0 3.10000000000014  C 0 2.26041666666669  0.379340277777686 1.53385416666669  1.13802083333326 0.920312500000136  C 1.89670138888885 0.30677083333336  2.79513888888885 0  3.83333333333326 0  L 19.1666666666667 0  C 20.2048611111112 0  21.1032986111112 0.30677083333336  21.8619791666667 0.920312500000136  Z " fill-rule="nonzero" fill="#aeaeae" stroke="none" transform="matrix(1 0 0 1 500 401 )" />
  </g>
</svg>