<?xml version="1.0" encoding="utf-8"?>
<svg version="1.1" xmlns:xlink="http://www.w3.org/1999/xlink" width="23px" height="31px" xmlns="http://www.w3.org/2000/svg">
  <g transform="matrix(1 0 0 1 -500 -492 )">
    <path d="M 6.38888888888892 9.86363636363632  L 6.38888888888892 14  L 16.6111111111111 14  L 16.6111111111111 9.86363636363632  C 16.6111111111111 8.30776515151513  16.1119791666667 6.97940340909099  15.1137152777778 5.87855113636368  C 14.1154513888889 4.77769886363632  12.9108796296297 4.22727272727286  11.5 4.22727272727286  C 10.0891203703703 4.22727272727286  8.88454861111109 4.77769886363632  7.88628472222219 5.87855113636368  C 6.88802083333329 6.97940340909099  6.38888888888892 8.30776515151513  6.38888888888892 9.86363636363632  Z M 22.4409722222222 14.7073863636363  C 22.8136574074073 15.1183712121211  23 15.6174242424244  23 16.2045454545453  L 23 28.8863636363637  C 23 29.4734848484849  22.8136574074073 29.9725378787878  22.4409722222222 30.3835227272729  C 22.068287037037 30.7945075757575  21.6157407407408 31  21.0833333333333 31  L 1.91666666666672 31  C 1.38425925925922 31  0.931712962962969 30.7945075757575  0.559027777777814 30.3835227272729  C 0.186342592592659 29.9725378787878  0 29.4734848484849  0 28.8863636363637  L 0 16.2045454545453  C 0 15.6174242424244  0.186342592592659 15.1183712121211  0.559027777777814 14.7073863636363  C 0.931712962962969 14.2964015151515  1.38425925925922 14.090909090909  1.91666666666672 14.090909090909  L 2.55555555555563 14.090909090909  L 2.55555555555563 9.86363636363632  C 2.55555555555563 7.16287878787887  3.43402777777781 4.84375  5.19097222222219 2.90625  C 6.94791666666671 0.96875  9.05092592592594 0  11.5 0  C 13.9490740740741 0  16.0520833333333 0.96875  17.8090277777778 2.90625  C 19.5659722222222 4.84375  20.4444444444444 7.16287878787887  20.4444444444444 9.86363636363632  L 20.4444444444444 14.090909090909  L 21.0833333333333 14.090909090909  C 21.6157407407408 14.090909090909  22.068287037037 14.2964015151515  22.4409722222222 14.7073863636363  Z " fill-rule="nonzero" fill="#aeaeae" stroke="none" transform="matrix(1 0 0 1 500 492 )" />
  </g>
</svg>