<?xml version="1.0" encoding="utf-8"?>
<svg version="1.1" xmlns:xlink="http://www.w3.org/1999/xlink" width="364px" height="40px" xmlns="http://www.w3.org/2000/svg">
  <defs>
    <mask fill="white" id="clip241">
      <path d="M 0 35  L 0 5  C 0 2.20000000000005  1.49682242990657 0  3.4018691588785 0  L 26.3077881619946 0  L 360.598130841121 0  C 362.503177570093 0  364 2.20000000000005  364 5  L 364 35  C 364 37.8  362.503177570093 40  360.598130841121 40  L 3.4018691588785 40  C 1.49682242990657 40  0 37.8  0 35  Z " fill-rule="evenodd" />
    </mask>
  </defs>
  <g transform="matrix(1 0 0 1 -678 -1223 )">
    <path d="M 0 35  L 0 5  C 0 2.20000000000005  1.49682242990657 0  3.4018691588785 0  L 26.3077881619946 0  L 360.598130841121 0  C 362.503177570093 0  364 2.20000000000005  364 5  L 364 35  C 364 37.8  362.503177570093 40  360.598130841121 40  L 3.4018691588785 40  C 1.49682242990657 40  0 37.8  0 35  Z " fill-rule="nonzero" fill="#ffffff" stroke="none" transform="matrix(1 0 0 1 678 1223 )" />
    <path d="M 0 35  L 0 5  C 0 2.20000000000005  1.49682242990657 0  3.4018691588785 0  L 26.3077881619946 0  L 360.598130841121 0  C 362.503177570093 0  364 2.20000000000005  364 5  L 364 35  C 364 37.8  362.503177570093 40  360.598130841121 40  L 3.4018691588785 40  C 1.49682242990657 40  0 37.8  0 35  Z " stroke-width="4" stroke="#f59a23" fill="none" transform="matrix(1 0 0 1 678 1223 )" mask="url(#clip241)" />
  </g>
</svg>