<?xml version="1.0" encoding="utf-8"?>
<svg version="1.1" xmlns:xlink="http://www.w3.org/1999/xlink" width="498px" height="40px" xmlns="http://www.w3.org/2000/svg">
  <defs>
    <mask fill="white" id="clip116">
      <path d="M 0 35  L 0 5  C 0 2.20000000000005  2.20000000000005 0  5 0  L 493 0  C 495.8 0  498 2.20000000000005  498 5  L 498 35  C 498 37.8  495.8 40  493 40  L 84.3333333333358 40  L 5 40  C 2.20000000000005 40  0 37.8  0 35  Z " fill-rule="evenodd" />
    </mask>
  </defs>
  <g transform="matrix(1 0 0 1 -871 -618 )">
    <path d="M 0 35  L 0 5  C 0 2.20000000000005  2.20000000000005 0  5 0  L 493 0  C 495.8 0  498 2.20000000000005  498 5  L 498 35  C 498 37.8  495.8 40  493 40  L 84.3333333333358 40  L 5 40  C 2.20000000000005 40  0 37.8  0 35  Z " fill-rule="nonzero" fill="#ffffff" stroke="none" transform="matrix(1 0 0 1 871 618 )" />
    <path d="M 0 35  L 0 5  C 0 2.20000000000005  2.20000000000005 0  5 0  L 493 0  C 495.8 0  498 2.20000000000005  498 5  L 498 35  C 498 37.8  495.8 40  493 40  L 84.3333333333358 40  L 5 40  C 2.20000000000005 40  0 37.8  0 35  Z " stroke-width="4" stroke="#f59a23" fill="none" transform="matrix(1 0 0 1 871 618 )" mask="url(#clip116)" />
  </g>
</svg>