<?xml version="1.0" encoding="utf-8"?>
<svg version="1.1" xmlns:xlink="http://www.w3.org/1999/xlink" width="35px" height="25px" xmlns="http://www.w3.org/2000/svg">
  <g transform="matrix(1 0 0 1 -893 -748 )">
    <path d="M 894 751  A 2 2 0 0 1 896 749 L 925 749  A 2 2 0 0 1 927 751 L 927 770  A 2 2 0 0 1 925 772 L 896 772  A 2 2 0 0 1 894 770 L 894 751  Z " fill-rule="nonzero" fill="#f59a23" stroke="none" fill-opacity="0.996078431372549" />
    <path d="M 893.5 751  A 2.5 2.5 0 0 1 896 748.5 L 925 748.5  A 2.5 2.5 0 0 1 927.5 751 L 927.5 770  A 2.5 2.5 0 0 1 925 772.5 L 896 772.5  A 2.5 2.5 0 0 1 893.5 770 L 893.5 751  Z " stroke-width="1" stroke="#f59a23" fill="none" stroke-opacity="0.996078431372549" />
  </g>
</svg>