<?xml version="1.0" encoding="utf-8"?>
<svg version="1.1" xmlns:xlink="http://www.w3.org/1999/xlink" width="35px" height="25px" xmlns="http://www.w3.org/2000/svg">
  <defs>
    <mask fill="white" id="clip97">
      <path d="M 0 22  L 0 3  C 0 1.31999999999994  1.31999999999994 0  3 0  L 21 0  L 32 0  C 33.6800000000001 0  35 1.31999999999994  35 3  L 35 22  C 35 23.6800000000001  33.6800000000001 25  32 25  L 3 25  C 1.31999999999994 25  0 23.6800000000001  0 22  Z " fill-rule="evenodd" />
    </mask>
  </defs>
  <g transform="matrix(1 0 0 1 -1128 -748 )">
    <path d="M 0 22  L 0 3  C 0 1.31999999999994  1.31999999999994 0  3 0  L 21 0  L 32 0  C 33.6800000000001 0  35 1.31999999999994  35 3  L 35 22  C 35 23.6800000000001  33.6800000000001 25  32 25  L 3 25  C 1.31999999999994 25  0 23.6800000000001  0 22  Z " fill-rule="nonzero" fill="#1abc9c" stroke="none" transform="matrix(1 0 0 1 1128 748 )" />
    <path d="M 0 22  L 0 3  C 0 1.31999999999994  1.31999999999994 0  3 0  L 21 0  L 32 0  C 33.6800000000001 0  35 1.31999999999994  35 3  L 35 22  C 35 23.6800000000001  33.6800000000001 25  32 25  L 3 25  C 1.31999999999994 25  0 23.6800000000001  0 22  Z " stroke-width="2" stroke="#1abc9c" fill="none" transform="matrix(1 0 0 1 1128 748 )" mask="url(#clip97)" />
  </g>
</svg>